The Game Plan 2007 BRRip H264 AAC-Rx(Phoenix-RG).mp4
      Format : MPEG-4 / AVC
      File size : 1.78 GiB
      Duration : 1h 50mn
      Format profile : High@L4.1
      Bit rate : 2 000 Kbps
      Width : 1 280 pixels
      Height : 536 pixels
      Display aspect ratio : 2.35
      Frame rate : 23.976 fps
      Resolution : 24 bits
      Colorimetry : 4:2:0
      Scan type : Progressive
      Bits/(Pixel*Frame) : 0.122
      Stream size : 1.54 GiB (86%)
      
AUDIO:
     
      Format : AAC / LC
      Format/Info : Advanced Audio Codec
      Duration : 1h 50mn
      Bit rate : 314 Kbps
      Channel(s) : 6 channels
      Channel positions : Front: L C R, Rear: L R, LFE
      Sampling rate : 48.0 KHz
      Resolution : 16 bits
      Stream size : 248 MiB (14%)

SCREEN:
 
http://img94.imageshack.us/img94/3770/vlcsnap2010082906h37m37.jpg
 
http://img291.imageshack.us/img291/9850/vlcsnap2010082906h37m49.jpg
 
http://img4.imageshack.us/img4/5720/vlcsnap2010082906h36m49.jpg